PathFileType	4	(X/Y/Z)	E:/New_biomech_experiments/Elbow Flexion/Shreyas_25_06_24_elbow_flexion/Session 2024-06-26/Shreyas_ElbFlex_pp_t02_26_06_24.trc	
DataRate	CameraRate	NumFrames	NumMarkers	Units	OrigDataRate	OrigDataStartFrame	OrigNumFrames	
120.00	120.00	22	19	m	120.00	1813	4832	
Frame#	Time	LFHD			LBHD			T10			C7			RBHD			PRSHO			RSHO			STRN			RFHD			CLAV			RWRA			RWRB			ARSHO			MRELB			RFRM			RHAND			RELB			RUPA			MRHAND			
		X1	Y1	Z1	X2	Y2	Z2	X3	Y3	Z3	X4	Y4	Z4	X5	Y5	Z5	X6	Y6	Z6	X7	Y7	Z7	X8	Y8	Z8	X9	Y9	Z9	X10	Y10	Z10	X11	Y11	Z11	X12	Y12	Z12	X13	Y13	Z13	X14	Y14	Z14	X15	Y15	Z15	X16	Y16	Z16	X17	Y17	Z17	X18	Y18	Z18	X19	Y19	Z19	

1813	15.100	0.08198	1.83840	-0.05683	-0.02320	1.73626	-0.07243	-0.07553	1.33873	-0.02560	-0.04874	1.54909	-0.01262	-0.03462	1.75687	0.06416	-0.07901	1.45247	0.11523	0.04025	1.50391	0.20032	0.18411	1.34329	-0.01398	0.06834	1.82404	0.07076	0.14853	1.46814	-0.00690	0.05782	0.88162	0.19669	0.04013	0.88774	0.29501	0.12667	1.46011	0.10464	0.00346	1.14053	0.14106	0.06733	1.01754	0.26475	0.06550	0.75074	0.20709	0.04991	1.17119	0.25021	0.03888	1.30519	0.23598	0.02806	0.78924	0.31664 
1814	15.108	0.08188	1.83842	-0.05688	-0.02327	1.73627	-0.07248	-0.07556	1.33872	-0.02565	-0.04878	1.54908	-0.01267	-0.03470	1.75686	0.06413	-0.07905	1.45246	0.11518	0.04022	1.50391	0.20028	0.18407	1.34330	-0.01401	0.06824	1.82404	0.07072	0.14848	1.46811	-0.00698	0.05777	0.88163	0.19668	0.04004	0.88774	0.29500	0.12663	1.46012	0.10460	0.00340	1.14053	0.14102	0.06721	1.01742	0.26463	0.06547	0.75075	0.20708	0.04984	1.17119	0.25018	0.03882	1.30519	0.23595	0.02797	0.78923	0.31661 
1815	15.117	0.08178	1.83844	-0.05693	-0.02335	1.73628	-0.07252	-0.07560	1.33871	-0.02570	-0.04883	1.54907	-0.01271	-0.03478	1.75685	0.06409	-0.07909	1.45245	0.11513	0.04018	1.50391	0.20024	0.18404	1.34332	-0.01405	0.06814	1.82405	0.07067	0.14842	1.46808	-0.00706	0.05771	0.88163	0.19667	0.03995	0.88775	0.29498	0.12659	1.46012	0.10457	0.00334	1.14052	0.14099	0.06708	1.01730	0.26449	0.06543	0.75076	0.20706	0.04976	1.17119	0.25016	0.03876	1.30519	0.23591	0.02789	0.78923	0.31659 
1816	15.125	0.08168	1.83845	-0.05699	-0.02342	1.73628	-0.07257	-0.07564	1.33870	-0.02574	-0.04888	1.54906	-0.01276	-0.03486	1.75683	0.06405	-0.07913	1.45244	0.11507	0.04014	1.50390	0.20019	0.18400	1.34332	-0.01409	0.06805	1.82406	0.07061	0.14836	1.46804	-0.00715	0.05764	0.88164	0.19665	0.03986	0.88775	0.29496	0.12655	1.46014	0.10453	0.00328	1.14052	0.14096	0.06695	1.01718	0.26436	0.06538	0.75077	0.20705	0.04969	1.17119	0.25013	0.03870	1.30520	0.23588	0.02782	0.78922	0.31658 
1817	15.133	0.08157	1.83845	-0.05705	-0.02350	1.73628	-0.07262	-0.07567	1.33869	-0.02579	-0.04892	1.54904	-0.01280	-0.03495	1.75681	0.06400	-0.07918	1.45243	0.11502	0.04010	1.50390	0.20015	0.18397	1.34333	-0.01413	0.06795	1.82406	0.07056	0.14830	1.46800	-0.00724	0.05757	0.88165	0.19664	0.03978	0.88776	0.29495	0.12651	1.46016	0.10450	0.00322	1.14052	0.14092	0.06683	1.01706	0.26422	0.06532	0.75078	0.20703	0.04963	1.17119	0.25010	0.03864	1.30520	0.23585	0.02775	0.78922	0.31656 
1818	15.142	0.08147	1.83846	-0.05712	-0.02357	1.73627	-0.07267	-0.07571	1.33868	-0.02584	-0.04897	1.54903	-0.01285	-0.03504	1.75679	0.06394	-0.07922	1.45242	0.11497	0.04006	1.50390	0.20011	0.18393	1.34333	-0.01417	0.06785	1.82407	0.07050	0.14824	1.46797	-0.00732	0.05749	0.88165	0.19662	0.03970	0.88776	0.29493	0.12647	1.46020	0.10448	0.00316	1.14051	0.14088	0.06672	1.01696	0.26410	0.06524	0.75078	0.20701	0.04957	1.17119	0.25007	0.03859	1.30520	0.23581	0.02767	0.78921	0.31655 
1819	15.150	0.08136	1.83846	-0.05718	-0.02365	1.73625	-0.07271	-0.07575	1.33867	-0.02589	-0.04901	1.54902	-0.01289	-0.03513	1.75676	0.06389	-0.07927	1.45240	0.11492	0.04001	1.50389	0.20007	0.18389	1.34334	-0.01422	0.06775	1.82408	0.07044	0.14819	1.46795	-0.00738	0.05741	0.88166	0.19661	0.03961	0.88777	0.29492	0.12643	1.46024	0.10447	0.00311	1.14051	0.14085	0.06663	1.01690	0.26402	0.06515	0.75079	0.20699	0.04952	1.17119	0.25004	0.03854	1.30520	0.23578	0.02759	0.78921	0.31653 
1820	15.158	0.08126	1.83846	-0.05725	-0.02372	1.73624	-0.07276	-0.07578	1.33866	-0.02594	-0.04906	1.54901	-0.01294	-0.03521	1.75675	0.06384	-0.07932	1.45239	0.11486	0.03997	1.50388	0.20002	0.18384	1.34334	-0.01427	0.06765	1.82410	0.07037	0.14814	1.46793	-0.00744	0.05732	0.88166	0.19659	0.03953	0.88777	0.29490	0.12640	1.46027	0.10446	0.00305	1.14050	0.14081	0.06655	1.01687	0.26398	0.06504	0.75078	0.20697	0.04947	1.17119	0.25000	0.03849	1.30520	0.23574	0.02750	0.78921	0.31652 
1821	15.167	0.08115	1.83846	-0.05733	-0.02380	1.73624	-0.07281	-0.07582	1.33864	-0.02600	-0.04911	1.54899	-0.01299	-0.03530	1.75674	0.06379	-0.07937	1.45238	0.11481	0.03992	1.50387	0.19998	0.18380	1.34334	-0.01431	0.06755	1.82411	0.07030	0.14809	1.46792	-0.00750	0.05724	0.88167	0.19657	0.03944	0.88778	0.29489	0.12636	1.46030	0.10443	0.00300	1.14049	0.14077	0.06647	1.01685	0.26393	0.06493	0.75078	0.20695	0.04942	1.17119	0.24996	0.03845	1.30520	0.23570	0.02739	0.78921	0.31651 
1822	15.175	0.08104	1.83845	-0.05740	-0.02387	1.73625	-0.07286	-0.07586	1.33863	-0.02605	-0.04917	1.54898	-0.01304	-0.03539	1.75674	0.06373	-0.07942	1.45237	0.11475	0.03987	1.50386	0.19993	0.18375	1.34334	-0.01436	0.06745	1.82413	0.07023	0.14804	1.46792	-0.00755	0.05716	0.88167	0.19656	0.03936	0.88779	0.29487	0.12631	1.46032	0.10440	0.00295	1.14049	0.14072	0.06638	1.01679	0.26384	0.06481	0.75077	0.20695	0.04937	1.17119	0.24993	0.03840	1.30520	0.23566	0.02727	0.78921	0.31650 
1823	15.183	0.08094	1.83845	-0.05748	-0.02395	1.73626	-0.07292	-0.07589	1.33862	-0.02610	-0.04922	1.54897	-0.01309	-0.03548	1.75675	0.06366	-0.07947	1.45235	0.11470	0.03982	1.50385	0.19989	0.18371	1.34334	-0.01441	0.06736	1.82416	0.07015	0.14799	1.46791	-0.00760	0.05708	0.88167	0.19654	0.03927	0.88779	0.29485	0.12627	1.46033	0.10437	0.00290	1.14048	0.14068	0.06628	1.01672	0.26375	0.06469	0.75075	0.20694	0.04932	1.17119	0.24989	0.03836	1.30519	0.23562	0.02714	0.78922	0.31649 
1824	15.192	0.08084	1.83844	-0.05756	-0.02402	1.73626	-0.07297	-0.07593	1.33860	-0.02616	-0.04927	1.54895	-0.01314	-0.03557	1.75675	0.06360	-0.07951	1.45234	0.11464	0.03977	1.50384	0.19984	0.18366	1.34334	-0.01447	0.06726	1.82418	0.07007	0.14794	1.46791	-0.00765	0.05701	0.88166	0.19653	0.03917	0.88780	0.29483	0.12622	1.46034	0.10433	0.00286	1.14047	0.14063	0.06619	1.01666	0.26368	0.06457	0.75074	0.20693	0.04926	1.17119	0.24985	0.03831	1.30519	0.23558	0.02701	0.78922	0.31648 
1825	15.200	0.08074	1.83844	-0.05764	-0.02410	1.73625	-0.07302	-0.07597	1.33859	-0.02621	-0.04933	1.54894	-0.01319	-0.03565	1.75675	0.06354	-0.07956	1.45233	0.11459	0.03972	1.50383	0.19979	0.18361	1.34334	-0.01452	0.06717	1.82420	0.07000	0.14788	1.46791	-0.00770	0.05693	0.88166	0.19651	0.03908	0.88781	0.29481	0.12617	1.46034	0.10429	0.00281	1.14046	0.14058	0.06609	1.01662	0.26362	0.06444	0.75072	0.20692	0.04921	1.17118	0.24981	0.03826	1.30518	0.23554	0.02688	0.78922	0.31646 
1826	15.208	0.08064	1.83843	-0.05772	-0.02419	1.73625	-0.07308	-0.07601	1.33857	-0.02627	-0.04938	1.54892	-0.01324	-0.03574	1.75676	0.06348	-0.07961	1.45231	0.11453	0.03966	1.50382	0.19975	0.18357	1.34333	-0.01458	0.06707	1.82422	0.06992	0.14783	1.46791	-0.00774	0.05685	0.88165	0.19649	0.03898	0.88781	0.29479	0.12613	1.46034	0.10425	0.00277	1.14045	0.14053	0.06600	1.01659	0.26357	0.06433	0.75071	0.20691	0.04914	1.17118	0.24977	0.03821	1.30517	0.23550	0.02675	0.78922	0.31644 
1827	15.217	0.08054	1.83842	-0.05780	-0.02428	1.73624	-0.07314	-0.07605	1.33856	-0.02632	-0.04944	1.54891	-0.01329	-0.03582	1.75676	0.06341	-0.07967	1.45230	0.11447	0.03961	1.50381	0.19970	0.18352	1.34333	-0.01463	0.06698	1.82425	0.06983	0.14778	1.46791	-0.00779	0.05677	0.88165	0.19647	0.03888	0.88781	0.29477	0.12608	1.46034	0.10421	0.00272	1.14044	0.14049	0.06591	1.01657	0.26352	0.06421	0.75070	0.20689	0.04908	1.17117	0.24973	0.03816	1.30516	0.23546	0.02662	0.78922	0.31642 
1828	15.225	0.08045	1.83841	-0.05788	-0.02436	1.73622	-0.07321	-0.07609	1.33854	-0.02638	-0.04949	1.54889	-0.01334	-0.03591	1.75676	0.06335	-0.07972	1.45229	0.11441	0.03955	1.50380	0.19965	0.18348	1.34333	-0.01468	0.06689	1.82427	0.06975	0.14773	1.46791	-0.00784	0.05670	0.88164	0.19644	0.03878	0.88781	0.29474	0.12603	1.46034	0.10417	0.00267	1.14044	0.14044	0.06582	1.01655	0.26348	0.06410	0.75069	0.20687	0.04901	1.17116	0.24969	0.03810	1.30515	0.23542	0.02649	0.78921	0.31640 
1829	15.233	0.08036	1.83840	-0.05796	-0.02445	1.73621	-0.07327	-0.07613	1.33853	-0.02644	-0.04955	1.54888	-0.01339	-0.03599	1.75676	0.06328	-0.07977	1.45228	0.11435	0.03949	1.50379	0.19960	0.18344	1.34333	-0.01473	0.06681	1.82428	0.06968	0.14768	1.46791	-0.00789	0.05662	0.88164	0.19641	0.03868	0.88781	0.29472	0.12598	1.46034	0.10413	0.00261	1.14043	0.14039	0.06573	1.01653	0.26344	0.06400	0.75068	0.20684	0.04895	1.17116	0.24965	0.03804	1.30514	0.23538	0.02637	0.78921	0.31637 
1830	15.242	0.08027	1.83839	-0.05804	-0.02454	1.73618	-0.07335	-0.07616	1.33851	-0.02649	-0.04960	1.54887	-0.01344	-0.03607	1.75677	0.06321	-0.07983	1.45227	0.11429	0.03943	1.50378	0.19955	0.18340	1.34334	-0.01477	0.06673	1.82427	0.06961	0.14763	1.46791	-0.00795	0.05653	0.88164	0.19638	0.03858	0.88781	0.29469	0.12593	1.46035	0.10409	0.00255	1.14043	0.14034	0.06564	1.01651	0.26339	0.06390	0.75068	0.20682	0.04888	1.17115	0.24961	0.03799	1.30512	0.23535	0.02624	0.78920	0.31633 
1831	15.250	0.08018	1.83838	-0.05812	-0.02463	1.73615	-0.07343	-0.07620	1.33849	-0.02655	-0.04965	1.54885	-0.01350	-0.03615	1.75676	0.06314	-0.07988	1.45226	0.11423	0.03937	1.50378	0.19949	0.18335	1.34334	-0.01482	0.06665	1.82426	0.06954	0.14758	1.46791	-0.00800	0.05645	0.88164	0.19635	0.03848	0.88782	0.29466	0.12588	1.46035	0.10405	0.00248	1.14043	0.14029	0.06555	1.01650	0.26335	0.06380	0.75068	0.20678	0.04881	1.17115	0.24956	0.03793	1.30511	0.23531	0.02611	0.78919	0.31629 
1832	15.258	0.08009	1.83838	-0.05820	-0.02472	1.73611	-0.07352	-0.07623	1.33847	-0.02661	-0.04971	1.54884	-0.01355	-0.03622	1.75676	0.06307	-0.07994	1.45225	0.11417	0.03931	1.50378	0.19944	0.18331	1.34333	-0.01487	0.06657	1.82424	0.06947	0.14753	1.46791	-0.00805	0.05636	0.88164	0.19631	0.03838	0.88782	0.29463	0.12583	1.46034	0.10400	0.00242	1.14043	0.14024	0.06546	1.01649	0.26331	0.06370	0.75067	0.20675	0.04875	1.17115	0.24951	0.03786	1.30510	0.23527	0.02599	0.78919	0.31625 
1833	15.267	0.08001	1.83838	-0.05828	-0.02482	1.73605	-0.07362	-0.07627	1.33846	-0.02666	-0.04976	1.54882	-0.01360	-0.03630	1.75676	0.06299	-0.07999	1.45224	0.11411	0.03925	1.50377	0.19938	0.18327	1.34333	-0.01492	0.06649	1.82422	0.06940	0.14747	1.46791	-0.00810	0.05627	0.88164	0.19627	0.03827	0.88782	0.29460	0.12577	1.46034	0.10396	0.00236	1.14043	0.14019	0.06537	1.01648	0.26326	0.06360	0.75067	0.20672	0.04868	1.17114	0.24946	0.03780	1.30510	0.23522	0.02586	0.78919	0.31621 
1834	15.275	0.07992	1.83838	-0.05836	-0.02492	1.73597	-0.07374	-0.07631	1.33844	-0.02672	-0.04981	1.54880	-0.01366	-0.03638	1.75676	0.06291	-0.08005	1.45223	0.11406	0.03919	1.50377	0.19933	0.18322	1.34333	-0.01496	0.06640	1.82420	0.06932	0.14742	1.46790	-0.00816	0.05618	0.88163	0.19622	0.03817	0.88782	0.29456	0.12572	1.46034	0.10391	0.00231	1.14043	0.14014	0.06528	1.01648	0.26321	0.06349	0.75066	0.20668	0.04861	1.17114	0.24940	0.03773	1.30510	0.23517	0.02572	0.78920	0.31617 
